<svg xmlns="http://www.w3.org/2000/svg" version="1.1" xmlns:xlink="http://www.w3.org/1999/xlink" xmlns:svgjs="http://svgjs.dev/svgjs" viewBox="0 0 1920 1080"><rect width="1920" height="1080" fill="#2a2727"></rect><g transform="matrix(7.04171909509728e-17,1.15,-1.15,7.04171909509728e-17,1532.7843551635742,-508.5520084381103)"><path d="M0,-1080C8.051217143992156,-987.1663926478897,64.30969604570906,-676.783584683802,48.30730286395294,-522.9983558873382C32.30490968219682,-369.2131270908744,-104.94224030958357,-289.8948905195333,-96.01435909053674,-157.28862722121738C-87.08647787148992,-24.68236392290143,93.21931709070199,103.02434734549564,101.87459017823392,272.6392239025575C110.52986326576584,442.25410045961934,-21.358222712489184,685.0980485161251,-44.08272056534521,860.4006321211538C-66.80721841820124,1035.7032157261824,-28.08611013430096,1177.7225374198188,-34.472396938902264,1324.4547255327295C-40.85868374350357,1471.1869136456403,-88.14584088277009,1601.5362150540739,-82.40044139295304,1740.793760798619C-76.655041903136,1880.051306543164,-13.733406898825507,2090.1322934664363,0,2160L 1920 2160 L 1920 -1080 Z" fill="url(&quot;#SvgjsLinearGradient1077&quot;)"></path><path d="M160,-1080C159.85578419183045,-979.485745109209,157.46201073811952,-679.1796403795196,159.13470515098277,-476.9144706552539C160.80739956384602,-274.64930093098826,173.66852112277547,-78.19252157304814,170.03616647717956,133.59101834559414C166.40381183158365,345.3745582642364,149.07153550261225,578.9572752316919,137.34057727740725,793.7867688565998C125.60961905220225,1008.6162624815076,95.87384667218414,1194.8657749044746,99.6504171259496,1422.5679800950413C103.42698757971506,1650.270185285608,149.94173618765828,2037.0946633491735,160,2160L 1920 2160 L 1920 -1080 Z" fill="url(&quot;#SvgjsLinearGradient1078&quot;)"></path><path d="M320,-1080C330.4622331427291,-989.0467946684222,396.5827446534209,-698.57616385758,382.77339885637446,-534.2807680105332C368.964053059328,-369.9853721634863,255.55280020455427,-248.87834263576136,237.1439252177215,-94.22762491771888C218.7350502308887,60.42309280032359,261.11835089430076,263.79842065257003,272.3201489353777,393.62353829772167C283.5219469764546,523.4486559428733,283.54404138667127,554.9707829787146,304.3547134641831,684.7230809531909C325.1653855416949,814.4753789276672,385.27127964278486,1005.1568784891964,397.18418140044844,1172.1373261445794C409.097083158112,1339.1177737999624,388.6961542435727,1521.9619879095858,375.83212401016465,1686.6057668854892C362.9680937767566,1851.2495458613926,329.3053540016941,2081.1009611475815,320,2160L 1920 2160 L 1920 -1080 Z" fill="url(&quot;#SvgjsLinearGradient1079&quot;)"></path><path d="M480,-1080C469.0827254388165,-1008.516727611663,421.1035182595083,-799.3836565394416,414.49635263289906,-651.1003656699778C407.88918700628983,-502.817074800514,445.7892382871733,-339.10477770940673,440.35700624034456,-190.30025478321681C434.9247741935158,-41.4957318570269,364.06935616716197,93.22306293062081,381.9029603519265,241.72677188716168C399.736564536691,390.23048084370254,547.2347727267186,550.7044063257317,547.3586313489317,700.7219989560283C547.4824899711448,850.7395915863249,392.84881285841703,973.5577927673966,382.64611208520523,1141.8323276689414C372.44341131199343,1310.106862570486,469.91677872386185,1540.6745963101207,486.142426709661,1710.3692083652973C502.3680746954601,1880.0638204204738,481.0237377849435,2085.0615347275498,480,2160L 1920 2160 L 1920 -1080 Z" fill="url(&quot;#SvgjsLinearGradient1080&quot;)"></path><path d="M640,-1080C642.9689672543805,-972.8097216861099,640.3488690328137,-629.1086267372569,657.813803526283,-436.8583301166593C675.2787380197523,-244.6080334960617,761.489788924741,-84.39637370840805,744.7896069608158,73.50177972358571C728.0894249968907,231.39993315557948,565.2956726423072,355.5526260710228,557.6127117427319,510.53059047530326C549.9297508431566,665.5085548795837,700.570202113237,810.3436941129088,698.6918415633645,1003.3695661492683C696.813481013492,1196.3954381856279,556.1245220373912,1475.9140837183384,546.3425484434971,1668.6858226934603C536.560574849603,1861.4575616685822,624.3904247405828,2078.1143037822435,640,2160L 1920 2160 L 1920 -1080 Z" fill="url(&quot;#SvgjsLinearGradient1081&quot;)"></path><path d="M800,-1080C809.7762960348965,-963.1273724504398,850.8540994894258,-600.857727366305,858.6577762093792,-378.76423470263876C866.4614529293326,-156.67074203897252,844.0384566962497,58.8527111126144,846.8220603197201,252.56095598199758C849.6056639431905,446.2692008513808,896.9726218214378,580.2254212931026,875.3593979502015,783.4852345136602C853.7461740789652,986.7450477342178,729.7026167506692,1242.7007077242863,717.1427170923023,1472.119835305343C704.5828174339354,1701.5389628863998,786.1904528487171,2045.3533058842238,800,2160L 1920 2160 L 1920 -1080 Z" fill="url(&quot;#SvgjsLinearGradient1082&quot;)"></path><path d="M960,-1080C977.4217829616719,-992.9960557091092,1061.83275481943,-709.7397340957648,1064.530697770031,-557.9763342546555C1067.2286407206323,-406.2129344135463,991.4410005499901,-324.7730588893809,976.1876577036074,-169.4196009533447C960.9343148572248,-14.066143017308576,967.4551082603246,200.39079036410396,973.010640691735,374.1444133615613C978.5661731231455,547.8980363590186,998.5936073775645,719.2745124670548,1009.5208522920703,873.1021370313994C1020.4480972065762,1026.929761595744,1060.4795772976638,1154.193384653656,1038.5741101787705,1297.1101607476282C1016.6686430598772,1440.0269368416004,891.1837346085057,1586.7878203865046,878.0880495787106,1730.6027935952332C864.9923645489156,1874.4177668039617,946.3480082631185,2088.433798932539,960,2160L 1920 2160 L 1920 -1080 Z" fill="url(&quot;#SvgjsLinearGradient1083&quot;)"></path><path d="M1120,-1080C1131.7942182187867,-990.263939531453,1175.0105142015793,-710.1875822613571,1190.7653093127194,-541.5836371887184C1206.5201044238595,-372.9796921160797,1239.291201480293,-196.2195262946575,1214.5287706668407,-68.37632956416763C1189.7663398533884,59.46686716632222,1066.6426212375532,69.06667714868539,1042.1907244320057,225.47554319422068C1017.7388276264583,381.884409239756,1042.2521821646021,713.1780817066116,1067.817389833556,870.0768667090441C1093.38259750251,1026.9756517114768,1181.9400730206914,1016.7403481152149,1195.5819704457288,1166.868253208816C1209.223867870766,1316.996158302417,1162.2657694580682,1605.3223394721197,1149.6687743837801,1770.8442972706503C1137.071779309492,1936.3662550691809,1124.94479573063,2095.140716211775,1120,2160L 1920 2160 L 1920 -1080 Z" fill="url(&quot;#SvgjsLinearGradient1084&quot;)"></path><path d="M1280,-1080C1267.328388705669,-983.6988778665408,1191.3526589781836,-715.796594977479,1203.9703322340151,-502.1932671992447C1216.5880054898466,-288.5899394210104,1341.252736862269,-13.23306343142687,1355.7060395349897,201.61996666940598C1370.1593422077103,416.47299677023886,1297.8416716220386,560.5738701742445,1290.6901482703395,786.9249134057525C1283.5386249186404,1013.2759566372605,1314.5785908031855,1330.8803782927462,1312.7968994247956,1559.7262260584541C1311.0152080464056,1788.572073824162,1285.4661499041326,2059.9543710097423,1280,2160L 1920 2160 L 1920 -1080 Z" fill="url(&quot;#SvgjsLinearGradient1085&quot;)"></path><path d="M1440,-1080C1429.9190598810767,-946.6827241948096,1382.159283082251,-534.1625751902845,1379.5143592864606,-280.0963451688576C1376.8694354906702,-26.030115147430706,1413.2329044687322,163.75430084388626,1424.130457225257,444.3973801285616C1435.028009981782,725.0404594132369,1442.254752029819,1117.8283605606216,1444.8996758256094,1403.7621305391947C1447.5445996213998,1689.6959005177678,1440.8166126376016,2033.9603550898657,1440,2160L 1920 2160 L 1920 -1080 Z" fill="url(&quot;#SvgjsLinearGradient1086&quot;)"></path><path d="M1600,-1080C1585.9047878397434,-1005.660141825228,1522.80758543224,-801.8091407742955,1515.4287270384607,-633.9608509513682C1508.0498686446813,-466.1125611284409,1525.202905280131,-224.79125438123717,1555.726849637323,-72.91026106243629C1586.250793994515,78.97073225636458,1678.6153027781515,124.56276465246387,1698.5723931816128,277.32510896143714C1718.529483585074,430.0874532704104,1675.9390600324814,690.8504875077208,1675.4693920580908,843.6638047914032C1674.9997240837001,996.4771220750856,1700.9763856824693,1062.7505458532253,1695.7543853352684,1194.2050126635318C1690.5323849880674,1325.6594794738382,1660.0964541974304,1471.4247744304973,1644.1373899748858,1632.3906056532421C1628.1783257523412,1793.356436875987,1607.356231662481,2072.065100942207,1600,2160L 1920 2160 L 1920 -1080 Z" fill="url(&quot;#SvgjsLinearGradient1087&quot;)"></path><path d="M1760,-1080C1762.0271571665023,-987.1996386018764,1783.2519652024337,-736.8912920200963,1772.162942999014,-523.1978316112578C1761.0739207955942,-309.5043712024193,1708.4660143532824,-17.914805605437635,1693.4658667794815,202.1607624530308C1678.4657192056807,422.2363305114992,1658.869942401137,566.5345895550265,1682.1620575562083,797.2555767395528C1705.4541727112796,1027.976563924079,1820.2455673026113,1359.3626150167809,1833.2185577099099,1586.4866855601888C1846.1915481172084,1813.6107561035967,1772.2030929516516,2064.414447593365,1760,2160L 1920 2160 L 1920 -1080 Z" fill="url(&quot;#SvgjsLinearGradient1088&quot;)"></path></g><defs><linearGradient x1="0.1" y1="0" x2="0" y2="1" id="SvgjsLinearGradient1077"><stop stop-color="#2a2727" offset="0"></stop><stop stop-color="#2a2727" offset="0"></stop></linearGradient><linearGradient x1="0.1" y1="0" x2="0" y2="1" id="SvgjsLinearGradient1078"><stop stop-color="#3d3838" offset="0"></stop><stop stop-color="#3d3839" offset="0.08333333333333333"></stop></linearGradient><linearGradient x1="0.1" y1="0" x2="0" y2="1" id="SvgjsLinearGradient1079"><stop stop-color="#4f4a4a" offset="0"></stop><stop stop-color="#4f4a4b" offset="0.16666666666666666"></stop></linearGradient><linearGradient x1="0.1" y1="0" x2="0" y2="1" id="SvgjsLinearGradient1080"><stop stop-color="#625b5b" offset="0"></stop><stop stop-color="#625b5c" offset="0.25"></stop></linearGradient><linearGradient x1="0.1" y1="0" x2="0" y2="1" id="SvgjsLinearGradient1081"><stop stop-color="#746c6c" offset="0"></stop><stop stop-color="#746c6d" offset="0.3333333333333333"></stop></linearGradient><linearGradient x1="0.1" y1="0" x2="0" y2="1" id="SvgjsLinearGradient1082"><stop stop-color="#877d7d" offset="0"></stop><stop stop-color="#877d7f" offset="0.4166666666666667"></stop></linearGradient><linearGradient x1="0.1" y1="0" x2="0" y2="1" id="SvgjsLinearGradient1083"><stop stop-color="#989090" offset="0"></stop><stop stop-color="#989091" offset="0.5"></stop></linearGradient><linearGradient x1="0.1" y1="0" x2="0" y2="1" id="SvgjsLinearGradient1084"><stop stop-color="#a9a3a3" offset="0"></stop><stop stop-color="#a9a3a4" offset="0.5833333333333334"></stop></linearGradient><linearGradient x1="0.1" y1="0" x2="0" y2="1" id="SvgjsLinearGradient1085"><stop stop-color="#bbb5b5" offset="0"></stop><stop stop-color="#bbb5b6" offset="0.6666666666666666"></stop></linearGradient><linearGradient x1="0.1" y1="0" x2="0" y2="1" id="SvgjsLinearGradient1086"><stop stop-color="#ccc8c8" offset="0"></stop><stop stop-color="#ccc8c9" offset="0.75"></stop></linearGradient><linearGradient x1="0.1" y1="0" x2="0" y2="1" id="SvgjsLinearGradient1087"><stop stop-color="#dddada" offset="0"></stop><stop stop-color="#dddada" offset="0.8333333333333334"></stop></linearGradient><linearGradient x1="0.1" y1="0" x2="0" y2="1" id="SvgjsLinearGradient1088"><stop stop-color="#eeeded" offset="0"></stop><stop stop-color="#eeeded" offset="0.9166666666666666"></stop></linearGradient></defs></svg>