<svg xmlns="http://www.w3.org/2000/svg" version="1.1" xmlns:xlink="http://www.w3.org/1999/xlink" xmlns:svgjs="http://svgjs.dev/svgjs" viewBox="0 0 1920 1080"><rect width="1920" height="1080" fill="#575757"></rect><g transform="matrix(-2.112515728529184e-16,-1.15,1.15,-2.112515728529184e-16,311.6860160827639,1612.5889184951784)"><path d="M0,-1080C-4.294060924422181,-977.1415246627578,-30.703678480500876,-672.9432103278128,-25.764365546533085,-462.8491479765463C-20.825052612565294,-252.75508562527975,34.3889823992897,-37.52147510067161,29.635877603806748,180.5643741075994C24.882772808323796,398.65022331587045,-49.321093767014965,630.9168054681562,-54.2829943194308,845.6659472730798C-59.24489487184663,1060.4150890780033,-9.182691430593389,1250.0035494826545,-0.13552571068825614,1469.0592249371412C8.911640009216876,1688.1149003916278,-0.02258761844804269,2044.8432041561903,0,2160L 1920 2160 L 1920 -1080 Z" fill="url(&quot;#SvgjsLinearGradient1466&quot;)"></path><path d="M213.33333333333331,-1080C215.76591491005593,-979.7074312016517,226.0967827885942,-685.194805602852,227.92882279366896,-478.24458720991015C229.76086279874372,-271.29436881696824,233.54284460505312,-64.10952006789793,224.3255733637818,161.70131035765115C215.1083021225105,387.51214078320027,177.9054020236647,657.5562289159807,172.6251953460412,876.6203953433844C167.34498866841773,1095.6845617707882,185.85964363349228,1262.1897081459713,192.64433329804098,1476.0863089220738C199.42902296258967,1689.9829096981764,209.8851666607846,2046.0143848203456,213.33333333333331,2160L 1920 2160 L 1920 -1080 Z" fill="url(&quot;#SvgjsLinearGradient1467&quot;)"></path><path d="M426.66666666666663,-1080C420.221432039357,-998.5629907788216,387.87345366988126,-750.3653692450391,387.9952589028088,-591.3779446729299C388.11706413573637,-432.3905201008206,429.9325945598108,-284.8596674210535,427.3974980642319,-126.07545256734458C424.862401568653,32.70876228636432,373.0777911943551,209.47839111687605,372.7846799293355,361.3273444493236C372.4915686643159,513.1762977817712,424.46118183562595,633.3706980046427,425.6388304741144,785.0182674273408C426.81647911260285,936.6658368500389,373.6191751769458,1123.035390457271,379.8505717602661,1271.212760985512C386.0819683435864,1419.390131513753,455.2245274896361,1525.9512840943719,463.02720997403617,1674.0824905967866C470.82989245843623,1822.2136970992012,432.7267572178949,2079.013748432798,426.66666666666663,2160L 1920 2160 L 1920 -1080 Z" fill="url(&quot;#SvgjsLinearGradient1468&quot;)"></path><path d="M640,-1080C643.4760288333551,-964.6413344294284,664.0904688968546,-610.823106962887,660.8561730001308,-387.8480065765707C657.6218771034069,-164.87290619025444,623.4990486793026,39.79934466523085,620.5942246196566,257.8506023178976C617.6894005600107,475.9018599705644,634.137496068744,704.0155933876267,643.4272286422549,920.4595393394296C652.7169612157659,1136.9034852912325,676.9038248344317,1349.924201251953,676.3326200607225,1556.5142780287147C675.7614152870134,1763.1043548054763,646.055436676787,2059.419046338119,640,2160L 1920 2160 L 1920 -1080 Z" fill="url(&quot;#SvgjsLinearGradient1469&quot;)"></path><path d="M853.3333333333333,-1080C857.4210648259169,-1015.4014922078762,885.3870387981384,-826.2030078514457,877.8597222888352,-692.4089532472573C870.332405779532,-558.6148986430688,810.493844995673,-406.98682359554266,808.1694342775138,-277.23567237486947C805.8450235593546,-147.48452115419627,861.3076517368739,-58.685285484103076,863.9132579798794,86.09795407678192C866.5188642228849,230.8811936376669,834.4684485189432,443.66866666922925,823.8030717355467,591.4637649904404C813.1376949521502,739.2588633116516,791.860034455671,843.7891683562915,799.9209972795002,972.8685440040487C807.9819601033294,1101.9479196518057,861.3181435052726,1245.0366566812272,872.1688486785222,1365.9400188769832C883.0195538517718,1486.8433810727392,868.1644808765294,1565.945386991415,865.025228318998,1698.2887171785844C861.8859757614665,1830.6320473657538,855.2819824976107,2083.048119529764,853.3333333333333,2160L 1920 2160 L 1920 -1080 Z" fill="url(&quot;#SvgjsLinearGradient1470&quot;)"></path><path d="M1066.6666666666667,-1080C1071.0333171853028,-962.6950246540309,1096.4827688012517,-593.2995275395275,1092.8665697784838,-376.17014792418524C1089.250370755716,-159.04076830884298,1054.1585241285175,17.40310909513886,1044.9694725300594,222.7762776920535C1035.7804209316014,428.14944628896814,1037.8842528712853,632.1791371154839,1037.7322601877354,856.0688636573025C1037.5802675041855,1079.958590199121,1039.2351153489374,1348.792780885849,1044.0575164287593,1566.1146369429653C1048.8799175085812,1783.4364930000816,1062.8984749603487,2061.019106157161,1066.6666666666667,2160L 1920 2160 L 1920 -1080 Z" fill="url(&quot;#SvgjsLinearGradient1471&quot;)"></path><path d="M1280,-1080C1274.088757841162,-963.6105209169756,1246.388126761518,-603.227860594038,1244.532547046972,-381.66312550185376C1242.676967332426,-160.09839040966952,1257.6975555368028,41.18186001209429,1268.8665217127239,249.38841055310536C1280.0354878886449,457.59496109411646,1311.2049499937013,651.7377722279119,1311.5463441024976,867.5761777442127C1311.887738211294,1083.4145832605136,1276.1726103825847,1329.0148732749458,1270.9148863655018,1544.4188436509103C1265.657162348419,1759.8228140268748,1278.4858143942504,2057.403140608485,1280,2160L 1920 2160 L 1920 -1080 Z" fill="url(&quot;#SvgjsLinearGradient1472&quot;)"></path><path d="M1493.3333333333333,-1080C1485.7152121450313,-963.6893767733018,1453.5690831842992,-587.9160997025712,1447.6246062035216,-382.1362606398109C1441.680129222744,-176.35642157705067,1459.510805102033,-51.09052226402707,1457.6664714486674,154.67903437656162C1455.8221377953018,360.4485910171503,1438.510342368142,620.3527838443667,1436.5586042833288,852.4810792037212C1434.6068661985157,1084.6093745630756,1436.4935880981216,1329.5289863999749,1445.9560429397889,1547.448806532688C1455.4184977814562,1765.368626665401,1485.4371182677426,2057.9081344221145,1493.3333333333333,2160L 1920 2160 L 1920 -1080 Z" fill="url(&quot;#SvgjsLinearGradient1473&quot;)"></path><path d="M1706.6666666666665,-1080C1704.6076303941938,-962.5618078716175,1685.0747524649512,-597.0507146520974,1694.3124490318307,-375.370847229705C1703.5501455987103,-153.69097980731266,1756.566714520767,44.98066808688472,1762.0928460679438,250.07920453435423C1767.6189776151207,455.1777409818237,1744.5632423014308,637.0307098715133,1727.4692383148922,855.220371455112C1710.3752343283536,1073.4100330387107,1662.9959174234166,1341.7539026117984,1659.5288221487124,1559.2171740359463C1656.0617268740082,1776.6804454600942,1698.8103592470075,2059.869529005991,1706.6666666666665,2160L 1920 2160 L 1920 -1080 Z" fill="url(&quot;#SvgjsLinearGradient1474&quot;)"></path></g><defs><linearGradient x1="0.1" y1="0" x2="0" y2="1" id="SvgjsLinearGradient1466"><stop stop-color="#575757" offset="0"></stop><stop stop-color="#575757" offset="0"></stop></linearGradient><linearGradient x1="0.1" y1="0" x2="0" y2="1" id="SvgjsLinearGradient1467"><stop stop-color="#4d4d4d" offset="0"></stop><stop stop-color="#4d4d4d" offset="0.1111111111111111"></stop></linearGradient><linearGradient x1="0.1" y1="0" x2="0" y2="1" id="SvgjsLinearGradient1468"><stop stop-color="#444444" offset="0"></stop><stop stop-color="#444444" offset="0.2222222222222222"></stop></linearGradient><linearGradient x1="0.1" y1="0" x2="0" y2="1" id="SvgjsLinearGradient1469"><stop stop-color="#3a3a3a" offset="0"></stop><stop stop-color="#3a3a3a" offset="0.3333333333333333"></stop></linearGradient><linearGradient x1="0.1" y1="0" x2="0" y2="1" id="SvgjsLinearGradient1470"><stop stop-color="#303030" offset="0"></stop><stop stop-color="#303030" offset="0.4444444444444444"></stop></linearGradient><linearGradient x1="0.1" y1="0" x2="0" y2="1" id="SvgjsLinearGradient1471"><stop stop-color="#272727" offset="0"></stop><stop stop-color="#272727" offset="0.5555555555555556"></stop></linearGradient><linearGradient x1="0.1" y1="0" x2="0" y2="1" id="SvgjsLinearGradient1472"><stop stop-color="#1d1d1d" offset="0"></stop><stop stop-color="#1d1d1d" offset="0.6666666666666666"></stop></linearGradient><linearGradient x1="0.1" y1="0" x2="0" y2="1" id="SvgjsLinearGradient1473"><stop stop-color="#131313" offset="0"></stop><stop stop-color="#131313" offset="0.7777777777777778"></stop></linearGradient><linearGradient x1="0.1" y1="0" x2="0" y2="1" id="SvgjsLinearGradient1474"><stop stop-color="#0a0a0a" offset="0"></stop><stop stop-color="#0a0a0a" offset="0.8888888888888888"></stop></linearGradient></defs></svg>